<?xml version="1.0" encoding="utf-8"?>
<!-- Generator: Adobe Illustrator 25.2.1, SVG Export Plug-In . SVG Version: 6.00 Build 0)  -->
<svg version="1.1" id="Capa_1" xmlns="http://www.w3.org/2000/svg" xmlns:xlink="http://www.w3.org/1999/xlink" x="0px" y="0px"
	 viewBox="0 0 528 553" style="enable-background:new 0 0 528 553;" xml:space="preserve">
<style type="text/css">
	.st0{fill:#F196BF;stroke:#000000;stroke-miterlimit:10;}
	.st1{fill:#F6B8D5;stroke:#000000;stroke-miterlimit:10;}
	.st2{fill:#E83680;stroke:#000000;stroke-miterlimit:10;}
	.st3{display:none;opacity:0.8;fill:#E83680;}
	.st4{fill:#F196BF;}
	.st5{fill:#F6B8D5;}
	.st6{display:none;fill:#F6B8D5;}
	.st7{display:none;}
	.st8{display:inline;fill:#E52622;}
</style>
<rect x="-20.82" y="-131.46" class="st0" width="68.46" height="82.93"/>
<rect x="87.18" y="-127.61" class="st1" width="55.93" height="75.21"/>
<rect x="184.57" y="-127.61" class="st2" width="85.21" height="85.21"/>
<polygon class="st3" points="0,193.68 230.28,395.18 264,372.07 297.72,395.18 528,193.68 264,0 "/>
<g>
	<polygon class="st4" points="0,193.68 0,553 230.28,395.18 	"/>
	<polygon class="st4" points="528,553 528,193.68 297.72,395.18 	"/>
	<polygon class="st5" points="297.72,395.18 297.72,395.18 264,372.07 230.28,395.18 230.28,395.18 230.28,395.18 0,553 528,553 
		297.72,395.18 	"/>
</g>
<polygon class="st6" points="230.28,397.23 230.28,397.23 264,427.04 297.72,397.23 297.72,397.23 297.72,397.23 528,193.68 
	0,193.68 230.28,397.23 "/>
<g transform="translate(0.000000,1200.000000) scale(0.100000,-0.100000)" class="st7">
	<path class="st8" d="M2283.27,8665.17c-2.42-0.25-10.19-1.13-17.2-1.89c-7.01-0.63-19.62-2.64-28.03-4.28
		c-92.63-18.25-170.48-69.36-221.7-145.38c-12.23-18.13-30.71-55.01-37.59-74.89c-16.31-46.95-21.28-82.19-20-142.11
		c1.02-51.86,4.59-86.22,13.12-127.76c23.06-112.53,74.79-197.74,184.75-304.74c43.83-42.54,76.45-71.62,180.17-160.49
		c135.19-115.8,214.19-185.54,282.48-249.6l20.77-19.38l21.92,20.52c69.44,64.95,145.64,132.17,285.8,252.25
		c160.42,137.45,215.72,190.7,265.79,256.15c63.45,82.82,95.31,167.41,105.63,281.32c2.29,24.8,3.06,86.22,1.4,104.6
		c-2.93,31.85-8.92,59.66-19.24,89.24c-6.12,17.62-23.32,52.99-33.77,69.23c-15.67,24.29-36.95,49.47-57.34,67.72
		c-53.77,47.96-117.61,77.16-191.76,87.35c-22.43,3.02-74.79,3.02-96.2,0c-92.38-13.47-172.9-58.53-237.63-133.05
		c-11.09-12.84-29.31-37.26-37.21-49.97c-3.57-5.79-6.88-10.45-7.39-10.45c-0.51,0-3.06,3.52-5.73,7.93
		c-16.05,25.93-37.72,52.61-62.43,77.16c-33.13,32.73-64.98,55.51-104.48,74.77c-50.33,24.42-94.67,34.99-150.99,35.87
		C2300.59,8665.54,2285.69,8665.42,2283.27,8665.17z"/>
</g>
</svg>
