<?xml version="1.0" encoding="utf-8"?>
<!-- Generator: Adobe Illustrator 25.2.1, SVG Export Plug-In . SVG Version: 6.00 Build 0)  -->
<svg version="1.1" id="Capa_1" xmlns="http://www.w3.org/2000/svg" xmlns:xlink="http://www.w3.org/1999/xlink" x="0px" y="0px"
	 viewBox="0 0 528 553" style="enable-background:new 0 0 528 553;" xml:space="preserve">
<style type="text/css">
	.st0{display:none;opacity:0.8;fill:#E83680;enable-background:new    ;}
	.st1{fill:#F196BF;}
	.st2{fill:#F6B8D5;}
	.st3{display:none;fill:#F6B8D5;}
	.st4{display:none;}
	.st5{display:inline;fill:#E52622;}
</style>
<polygon class="st0" points="0,193.7 230.3,395.2 264,372.1 297.7,395.2 528,193.7 264,0 "/>
<g>
	<polygon class="st1" points="0,0 0,359.3 230.3,201.5 	"/>
	<polygon class="st1" points="528,359.3 528,0 297.7,201.5 	"/>
	<polygon class="st2" points="297.7,201.5 297.7,201.5 264,178.4 230.3,201.5 230.3,201.5 230.3,201.5 0,359.3 528,359.3 	"/>
</g>
<polygon class="st3" points="230.3,397.2 230.3,397.2 264,427 297.7,397.2 297.7,397.2 297.7,397.2 528,193.7 0,193.7 "/>
<g transform="translate(0.000000,1200.000000) scale(0.100000,-0.100000)" class="st4">
	<path class="st5" d="M2283.3,8665.2c-2.4-0.2-10.2-1.1-17.2-1.9c-7-0.6-19.6-2.6-28-4.3c-92.6-18.2-170.5-69.4-221.7-145.4
		c-12.2-18.1-30.7-55-37.6-74.9c-16.3-47-21.3-82.2-20-142.1c1-51.9,4.6-86.2,13.1-127.8c23.1-112.5,74.8-197.7,184.8-304.7
		c43.8-42.5,76.4-71.6,180.2-160.5c135.2-115.8,214.2-185.5,282.5-249.6l20.8-19.4l21.9,20.5c69.4,65,145.6,132.2,285.8,252.2
		c160.4,137.5,215.7,190.7,265.8,256.1c63.4,82.8,95.3,167.4,105.6,281.3c2.3,24.8,3.1,86.2,1.4,104.6c-2.9,31.8-8.9,59.7-19.2,89.2
		c-6.1,17.6-23.3,53-33.8,69.2c-15.7,24.3-36.9,49.5-57.3,67.7c-53.8,48-117.6,77.2-191.8,87.3c-22.4,3-74.8,3-96.2,0
		c-92.4-13.5-172.9-58.5-237.6-133c-11.1-12.8-29.3-37.3-37.2-50c-3.6-5.8-6.9-10.5-7.4-10.5s-3.1,3.5-5.7,7.9
		c-16.1,25.9-37.7,52.6-62.4,77.2c-33.1,32.7-65,55.5-104.5,74.8c-50.3,24.4-94.7,35-151,35.9
		C2300.6,8665.5,2285.7,8665.4,2283.3,8665.2z"/>
</g>
</svg>
